<?xml version="1.0" encoding="utf-8"?>
<!-- Generator: Adobe Illustrator 23.0.1, SVG Export Plug-In . SVG Version: 6.00 Build 0)  -->
<svg version="1.1" id="Layer_1" xmlns="http://www.w3.org/2000/svg" xmlns:xlink="http://www.w3.org/1999/xlink" x="0px" y="0px"
	 viewBox="0 0 1400 900" style="enable-background:new 0 0 1400 900;" xml:space="preserve">
<style type="text/css">
	.st0{fill:url(#SVGID_1_);}
	.st1{fill:url(#SVGID_2_);}
	.st2{fill:url(#SVGID_3_);}
	.st3{fill:url(#SVGID_4_);}
	.st4{fill:url(#SVGID_5_);}
	.st5{fill:url(#SVGID_6_);}
	.st6{clip-path:url(#SVGID_8_);}
	.st7{fill:url(#SVGID_9_);}
	.st8{fill:url(#SVGID_10_);}
	.st9{fill:url(#SVGID_11_);}
	.st10{fill:url(#SVGID_12_);}
	.st11{fill:url(#SVGID_13_);}
	.st12{fill:url(#SVGID_14_);}
	.st13{fill:url(#SVGID_15_);}
	.st14{fill:url(#SVGID_16_);}
	.st15{fill:url(#SVGID_17_);}
	.st16{fill:url(#SVGID_18_);}
	.st17{fill:url(#SVGID_19_);}
	.st18{fill:url(#SVGID_20_);}
	.st19{fill:url(#SVGID_21_);}
	.st20{fill:url(#SVGID_22_);}
	.st21{fill:url(#SVGID_23_);}
	.st22{fill:url(#SVGID_24_);}
	.st23{fill:url(#SVGID_25_);}
	.st24{fill:url(#SVGID_26_);}
	.st25{fill:url(#SVGID_27_);}
	.st26{fill:url(#SVGID_28_);}
	.st27{fill:url(#SVGID_29_);}
	.st28{fill:url(#SVGID_30_);}
	.st29{fill:url(#SVGID_31_);}
	.st30{fill:url(#SVGID_32_);}
	.st31{fill:url(#SVGID_33_);}
	.st32{fill:url(#SVGID_34_);}
	.st33{fill:url(#SVGID_35_);}
	.st34{fill:url(#SVGID_36_);}
	.st35{fill:url(#SVGID_37_);}
	.st36{fill:url(#SVGID_38_);}
</style>
<g>
	<linearGradient id="SVGID_1_" gradientUnits="userSpaceOnUse" x1="700" y1="269.8012" x2="700" y2="-540.7243">
		<stop  offset="0" style="stop-color:#CE5C9E"/>
		<stop  offset="1" style="stop-color:#231250"/>
	</linearGradient>
	<polygon class="st0" points="0,0 1400,0 1400,841 0,841 	"/>
	
		<linearGradient id="SVGID_2_" gradientUnits="userSpaceOnUse" x1="1186.1393" y1="680.7333" x2="1186.1393" y2="308.3814" gradientTransform="matrix(-1 0 0 1 2217 0)">
		<stop  offset="0" style="stop-color:#CE5C9E"/>
		<stop  offset="1" style="stop-color:#231250"/>
	</linearGradient>
	<polygon class="st1" points="661.72,606.91 884.37,390.49 999.74,476.76 1220.52,275.42 1309.59,361.7 1400,275.42 1400,667.58 	
		"/>
	
		<linearGradient id="SVGID_3_" gradientUnits="userSpaceOnUse" x1="1186.1393" y1="686.6509" x2="1186.1393" y2="146.7834" gradientTransform="matrix(1 0 0 1 -817 0)">
		<stop  offset="0" style="stop-color:#CE5C9E"/>
		<stop  offset="1" style="stop-color:#231250"/>
	</linearGradient>
	<polygon class="st2" points="738.28,606.91 415.37,297.02 300,383.29 0,99 0,667.58 	"/>
	<linearGradient id="SVGID_4_" gradientUnits="userSpaceOnUse" x1="320.5" y1="679.0001" x2="320.5" y2="355.7108">
		<stop  offset="0" style="stop-color:#CE5C9E"/>
		<stop  offset="1" style="stop-color:#231250"/>
	</linearGradient>
	<polygon class="st3" points="641,614.9 447.69,427 347.52,501.91 155.83,327.1 78.5,402 0,327.1 0,667.58 	"/>
	<linearGradient id="SVGID_5_" gradientUnits="userSpaceOnUse" x1="1075.5" y1="679" x2="1075.5" y2="355.7117">
		<stop  offset="0" style="stop-color:#CE5C9E"/>
		<stop  offset="1" style="stop-color:#231250"/>
	</linearGradient>
	<polygon class="st4" points="1400,530 1214,380 997.67,557.67 869,501 751,601.25 1400,632 	"/>
	<linearGradient id="SVGID_6_" gradientUnits="userSpaceOnUse" x1="700" y1="566.8955" x2="700" y2="906.5663">
		<stop  offset="0" style="stop-color:#CE5C9E"/>
		<stop  offset="1" style="stop-color:#231250"/>
	</linearGradient>
	<rect x="0" y="585.43" class="st5" width="1400" height="314.57"/>
	<g>
		<defs>
			<rect id="SVGID_7_" x="0" y="568.02" width="1400" height="331.98"/>
		</defs>
		<clipPath id="SVGID_8_">
			<use xlink:href="#SVGID_7_"  style="overflow:visible;"/>
		</clipPath>
		<g class="st6">
			<g>
				<g>
					<linearGradient id="SVGID_9_" gradientUnits="userSpaceOnUse" x1="699.9998" y1="564.2185" x2="699.9998" y2="993.9634">
						<stop  offset="0" style="stop-color:#EE9FC5"/>
						<stop  offset="1" style="stop-color:#9652A0"/>
					</linearGradient>
					<rect x="-270.6" y="585.43" class="st7" width="1941.19" height="1.09"/>
				</g>
				<g>
					<linearGradient id="SVGID_10_" gradientUnits="userSpaceOnUse" x1="699.9998" y1="564.2213" x2="699.9998" y2="993.9268">
						<stop  offset="0" style="stop-color:#EE9FC5"/>
						<stop  offset="1" style="stop-color:#9652A0"/>
					</linearGradient>
					<rect x="-270.6" y="600.17" class="st8" width="1941.19" height="1.09"/>
				</g>
				<g>
					<linearGradient id="SVGID_11_" gradientUnits="userSpaceOnUse" x1="699.9998" y1="564.2222" x2="699.9998" y2="993.9277">
						<stop  offset="0" style="stop-color:#EE9FC5"/>
						<stop  offset="1" style="stop-color:#9652A0"/>
					</linearGradient>
					<rect x="-270.6" y="614.9" class="st9" width="1941.19" height="1.09"/>
				</g>
				<g>
					<linearGradient id="SVGID_12_" gradientUnits="userSpaceOnUse" x1="699.9998" y1="564.223" x2="699.9998" y2="993.9285">
						<stop  offset="0" style="stop-color:#EE9FC5"/>
						<stop  offset="1" style="stop-color:#9652A0"/>
					</linearGradient>
					<rect x="-270.6" y="629.64" class="st10" width="1941.19" height="1.09"/>
				</g>
				<g>
					<linearGradient id="SVGID_13_" gradientUnits="userSpaceOnUse" x1="699.9998" y1="564.2165" x2="699.9998" y2="993.9614">
						<stop  offset="0" style="stop-color:#EE9FC5"/>
						<stop  offset="1" style="stop-color:#9652A0"/>
					</linearGradient>
					<rect x="-270.6" y="644.37" class="st11" width="1941.19" height="1.09"/>
				</g>
				<g>
					<linearGradient id="SVGID_14_" gradientUnits="userSpaceOnUse" x1="699.9998" y1="564.2159" x2="699.9998" y2="993.9609">
						<stop  offset="0" style="stop-color:#EE9FC5"/>
						<stop  offset="1" style="stop-color:#9652A0"/>
					</linearGradient>
					<rect x="-270.6" y="659.11" class="st12" width="1941.19" height="1.09"/>
				</g>
				<g>
					<linearGradient id="SVGID_15_" gradientUnits="userSpaceOnUse" x1="699.9998" y1="564.2156" x2="699.9998" y2="993.9605">
						<stop  offset="0" style="stop-color:#EE9FC5"/>
						<stop  offset="1" style="stop-color:#9652A0"/>
					</linearGradient>
					<rect x="-270.6" y="673.85" class="st13" width="1941.19" height="1.09"/>
				</g>
				<g>
					<linearGradient id="SVGID_16_" gradientUnits="userSpaceOnUse" x1="699.9998" y1="564.215" x2="699.9998" y2="993.96">
						<stop  offset="0" style="stop-color:#EE9FC5"/>
						<stop  offset="1" style="stop-color:#9652A0"/>
					</linearGradient>
					<rect x="-270.6" y="688.58" class="st14" width="1941.19" height="1.09"/>
				</g>
				<g>
					<linearGradient id="SVGID_17_" gradientUnits="userSpaceOnUse" x1="699.9998" y1="564.2145" x2="699.9998" y2="993.9595">
						<stop  offset="0" style="stop-color:#EE9FC5"/>
						<stop  offset="1" style="stop-color:#9652A0"/>
					</linearGradient>
					<rect x="-270.6" y="703.32" class="st15" width="1941.19" height="1.09"/>
				</g>
				<g>
					<linearGradient id="SVGID_18_" gradientUnits="userSpaceOnUse" x1="699.9998" y1="564.214" x2="699.9998" y2="993.959">
						<stop  offset="0" style="stop-color:#EE9FC5"/>
						<stop  offset="1" style="stop-color:#9652A0"/>
					</linearGradient>
					<rect x="-270.6" y="718.05" class="st16" width="1941.19" height="1.09"/>
				</g>
				<g>
					<linearGradient id="SVGID_19_" gradientUnits="userSpaceOnUse" x1="699.9998" y1="564.2291" x2="699.9998" y2="993.9345">
						<stop  offset="0" style="stop-color:#EE9FC5"/>
						<stop  offset="1" style="stop-color:#9652A0"/>
					</linearGradient>
					<rect x="-270.6" y="732.79" class="st17" width="1941.19" height="1.09"/>
				</g>
				<g>
					<linearGradient id="SVGID_20_" gradientUnits="userSpaceOnUse" x1="699.9998" y1="564.2299" x2="699.9998" y2="993.9354">
						<stop  offset="0" style="stop-color:#EE9FC5"/>
						<stop  offset="1" style="stop-color:#9652A0"/>
					</linearGradient>
					<rect x="-270.6" y="747.53" class="st18" width="1941.19" height="1.09"/>
				</g>
				<g>
					<linearGradient id="SVGID_21_" gradientUnits="userSpaceOnUse" x1="699.9998" y1="564.2308" x2="699.9998" y2="993.9362">
						<stop  offset="0" style="stop-color:#EE9FC5"/>
						<stop  offset="1" style="stop-color:#9652A0"/>
					</linearGradient>
					<rect x="-270.6" y="762.26" class="st19" width="1941.19" height="1.09"/>
				</g>
				<g>
					<linearGradient id="SVGID_22_" gradientUnits="userSpaceOnUse" x1="699.9998" y1="564.212" x2="699.9998" y2="993.957">
						<stop  offset="0" style="stop-color:#EE9FC5"/>
						<stop  offset="1" style="stop-color:#9652A0"/>
					</linearGradient>
					<rect x="-270.6" y="777" class="st20" width="1941.19" height="1.09"/>
				</g>
				<g>
					<linearGradient id="SVGID_23_" gradientUnits="userSpaceOnUse" x1="699.9998" y1="564.2116" x2="699.9998" y2="993.9566">
						<stop  offset="0" style="stop-color:#EE9FC5"/>
						<stop  offset="1" style="stop-color:#9652A0"/>
					</linearGradient>
					<rect x="-270.6" y="791.73" class="st21" width="1941.19" height="1.09"/>
				</g>
				<g>
					<linearGradient id="SVGID_24_" gradientUnits="userSpaceOnUse" x1="699.9998" y1="564.2111" x2="699.9998" y2="993.9561">
						<stop  offset="0" style="stop-color:#EE9FC5"/>
						<stop  offset="1" style="stop-color:#9652A0"/>
					</linearGradient>
					<rect x="-270.6" y="806.47" class="st22" width="1941.19" height="1.09"/>
				</g>
				<g>
					<linearGradient id="SVGID_25_" gradientUnits="userSpaceOnUse" x1="699.9998" y1="564.2346" x2="699.9998" y2="993.94">
						<stop  offset="0" style="stop-color:#EE9FC5"/>
						<stop  offset="1" style="stop-color:#9652A0"/>
					</linearGradient>
					<rect x="-270.6" y="826.55" class="st23" width="1941.19" height="1.09"/>
				</g>
				<g>
					<linearGradient id="SVGID_26_" gradientUnits="userSpaceOnUse" x1="699.9998" y1="564.2095" x2="699.9998" y2="993.9545">
						<stop  offset="0" style="stop-color:#EE9FC5"/>
						<stop  offset="1" style="stop-color:#9652A0"/>
					</linearGradient>
					<rect x="-270.6" y="850.68" class="st24" width="1941.19" height="1.09"/>
				</g>
				<g>
					<linearGradient id="SVGID_27_" gradientUnits="userSpaceOnUse" x1="699.9998" y1="564.2376" x2="699.9998" y2="993.9431">
						<stop  offset="0" style="stop-color:#EE9FC5"/>
						<stop  offset="1" style="stop-color:#9652A0"/>
					</linearGradient>
					<rect x="-270.6" y="880.15" class="st25" width="1941.19" height="1.09"/>
				</g>
				<g>
					<linearGradient id="SVGID_28_" gradientUnits="userSpaceOnUse" x1="700" y1="564.2193" x2="700" y2="993.9508">
						<stop  offset="0" style="stop-color:#EE9FC5"/>
						<stop  offset="1" style="stop-color:#9652A0"/>
					</linearGradient>
					<rect x="699" y="585.97" class="st26" width="2" height="330.89"/>
				</g>
				<g>
					<g>
						<linearGradient id="SVGID_29_" gradientUnits="userSpaceOnUse" x1="878" y1="564.2191" x2="878" y2="993.9503">
							<stop  offset="0" style="stop-color:#EE9FC5"/>
							<stop  offset="1" style="stop-color:#9652A0"/>
						</linearGradient>
						<polygon class="st27" points="958.03,926.8 796.03,586.11 797.97,585.84 959.97,926.52 						"/>
					</g>
					<g>
						<linearGradient id="SVGID_30_" gradientUnits="userSpaceOnUse" x1="1097.3438" y1="564.2193" x2="1097.3438" y2="993.9488">
							<stop  offset="0" style="stop-color:#EE9FC5"/>
							<stop  offset="1" style="stop-color:#9652A0"/>
						</linearGradient>
						<polygon class="st28" points="1288.53,926.94 904.46,586.26 906.16,585.69 1290.23,926.38 						"/>
					</g>
					<g>
						<linearGradient id="SVGID_31_" gradientUnits="userSpaceOnUse" x1="1241.4702" y1="564.2192" x2="1241.4702" y2="993.949">
							<stop  offset="0" style="stop-color:#EE9FC5"/>
							<stop  offset="1" style="stop-color:#9652A0"/>
						</linearGradient>
						<polygon class="st29" points="1468.32,818.94 1013.26,586.37 1014.63,585.58 1469.68,818.14 						"/>
					</g>
					<g>
						<linearGradient id="SVGID_32_" gradientUnits="userSpaceOnUse" x1="1302.0313" y1="564.2192" x2="1302.0313" y2="993.9502">
							<stop  offset="0" style="stop-color:#EE9FC5"/>
							<stop  offset="1" style="stop-color:#9652A0"/>
						</linearGradient>
						<polygon class="st30" points="1468.5,690.73 1134.56,586.44 1135.56,585.5 1469.5,689.78 						"/>
					</g>
					<g>
						<linearGradient id="SVGID_33_" gradientUnits="userSpaceOnUse" x1="1373.916" y1="564.2192" x2="1373.916" y2="993.9505">
							<stop  offset="0" style="stop-color:#EE9FC5"/>
							<stop  offset="1" style="stop-color:#9652A0"/>
						</linearGradient>
						<polygon class="st31" points="1496,615.98 1251.41,586.5 1251.84,585.44 1496.43,614.91 						"/>
					</g>
				</g>
				<g>
					<g>
						<linearGradient id="SVGID_34_" gradientUnits="userSpaceOnUse" x1="522" y1="564.2191" x2="522" y2="993.9503">
							<stop  offset="0" style="stop-color:#EE9FC5"/>
							<stop  offset="1" style="stop-color:#9652A0"/>
						</linearGradient>
						<polygon class="st32" points="441.97,926.8 440.03,926.52 602.03,585.84 603.97,586.11 						"/>
					</g>
					<g>
						<linearGradient id="SVGID_35_" gradientUnits="userSpaceOnUse" x1="302.656" y1="564.2193" x2="302.656" y2="993.9488">
							<stop  offset="0" style="stop-color:#EE9FC5"/>
							<stop  offset="1" style="stop-color:#9652A0"/>
						</linearGradient>
						<polygon class="st33" points="111.47,926.94 109.77,926.38 493.84,585.69 495.54,586.26 						"/>
					</g>
					<g>
						<linearGradient id="SVGID_36_" gradientUnits="userSpaceOnUse" x1="158.5297" y1="564.2192" x2="158.5297" y2="993.949">
							<stop  offset="0" style="stop-color:#EE9FC5"/>
							<stop  offset="1" style="stop-color:#9652A0"/>
						</linearGradient>
						<polygon class="st34" points="-68.32,818.94 -69.68,818.14 385.38,585.58 386.74,586.37 						"/>
					</g>
					<g>
						<linearGradient id="SVGID_37_" gradientUnits="userSpaceOnUse" x1="97.9685" y1="564.2192" x2="97.9685" y2="993.9502">
							<stop  offset="0" style="stop-color:#EE9FC5"/>
							<stop  offset="1" style="stop-color:#9652A0"/>
						</linearGradient>
						<polygon class="st35" points="-68.5,690.73 -69.5,689.78 264.44,585.5 265.43,586.44 						"/>
					</g>
					<g>
						<linearGradient id="SVGID_38_" gradientUnits="userSpaceOnUse" x1="26.0837" y1="564.2192" x2="26.0837" y2="993.9505">
							<stop  offset="0" style="stop-color:#EE9FC5"/>
							<stop  offset="1" style="stop-color:#9652A0"/>
						</linearGradient>
						<polygon class="st36" points="-95.99,615.98 -96.43,614.91 148.16,585.44 148.59,586.5 						"/>
					</g>
				</g>
			</g>
		</g>
	</g>
</g>
</svg>
