<?xml version="1.0" encoding="utf-8"?>
<!-- Generator: Adobe Illustrator 23.0.1, SVG Export Plug-In . SVG Version: 6.00 Build 0)  -->
<svg version="1.1" id="Layer_1" xmlns="http://www.w3.org/2000/svg" xmlns:xlink="http://www.w3.org/1999/xlink" x="0px" y="0px"
	 viewBox="0 0 1400 621.6" style="enable-background:new 0 0 1400 621.6;" xml:space="preserve">
<style type="text/css">
	.st0{fill-rule:evenodd;clip-rule:evenodd;fill:#FFFFFF;}
	.st1{fill:url(#SVGID_1_);}
	.st2{fill:#FFFFFF;}
</style>
<g>
	
		<rect x="1183.5" y="247.6" transform="matrix(0.2079 -0.9781 0.9781 0.2079 801.2269 1496.8611)" class="st0" width="282.8" height="12.3"/>
	<path class="st0" d="M1137.7,50c0,0,19.5-20.2,70.8-22.8c50.4-2.5,49.4,15.2,110.6,15.2c61.3,0,60.1,0,60.1,0l-26.6,110.8
		c0,0-24.8,25.7-59.6,21.6c-56.3-6.7-35-21-84.5-26.5c-49.6-5.6-88.3,19.9-88.3,19.9L1137.7,50z"/>
	<g>
		
			<linearGradient id="SVGID_1_" gradientUnits="userSpaceOnUse" x1="262.3917" y1="-105.0199" x2="309.3635" y2="-23.6623" gradientTransform="matrix(1 0 0 -1 0 345.2394)">
			<stop  offset="0" style="stop-color:#CE5C9E"/>
			<stop  offset="1" style="stop-color:#231250"/>
		</linearGradient>
		<path class="st1" d="M281.9,433.1h-43.3c-6.2,0-11.6-2.3-16.1-6.9c-4.5-4.6-6.8-10.1-6.8-16.5c0-6.4,2.3-11.9,6.8-16.5
			c4.5-4.6,9.9-6.9,16.1-6.9h94.6c6.2,0,11.6,2.3,16.1,6.9c4.5,4.6,6.8,10.1,6.8,16.5c0,6.4-2.3,11.9-6.8,16.5
			c-4.5,4.6-9.9,6.9-16.1,6.9h-11.8"/>
	</g>
	<g>
		<path class="st2" d="M73.8,520.4v44.2c0,7-2.6,13-7.8,18.1s-11.4,7.5-18.7,7.5c-7.4,0-13.7-2.5-18.8-7.5c-5.1-5-7.7-11-7.7-18.1
			V408.1c0-7.2,2.6-13.3,7.7-18.4c5.1-5,11.4-7.5,18.8-7.5h70.1c22.5,0,40,4.9,52.7,14.7c15.8,12.4,23.8,30.4,23.8,53.9
			c0,20.1-7.5,36.9-22.6,50.6c-2.8,2.4-5.5,4.5-8.1,6.3l27.1,43c2.4,3.8,3.6,8,3.6,12.6c0,7-2.7,13.2-8,18.7
			c-5.3,5.4-11.6,8.1-18.8,8.1c-10,0-17.5-4.1-22.3-12.3l-34.6-57.5L73.8,520.4L73.8,520.4z M113.8,427.1h-40v48.8h39.4
			c6.8,0,12.6-1.5,17.5-4.5c6.2-4.2,9.3-10.8,9.3-19.9c0-8.8-2.8-15.2-8.4-19.3C126.9,428.8,121,427.1,113.8,427.1z"/>
		<path class="st2" d="M213.1,526.7v-57.5c0-6.4,2.4-11.9,7.1-16.5c4.7-4.6,10.5-6.9,17.3-6.9c6.8,0,12.6,2.3,17.3,6.9
			c4.7,4.6,7.1,10.1,7.1,16.5v56c0,5.8,1,10.7,3,14.7c3.6,7,10,10.5,19.3,10.5c9.2,0,15.7-3.5,19.3-10.5c2-4,3-8.9,3-14.7v-56
			c0-6.4,2.4-11.9,7.1-16.5c4.7-4.6,10.5-6.9,17.3-6.9c6.8,0,12.6,2.3,17.3,6.9c4.7,4.6,7.1,10.1,7.1,16.5v57.5
			c0,17.5-4.4,31.4-13.2,41.8c-12,14.5-31.3,21.7-57.8,21.7s-45.7-7.2-57.8-21.7C217.5,558.1,213.1,544.2,213.1,526.7z"/>
		<path class="st2" d="M557.7,409.7c0,7-2.4,12.9-7.2,17.6c-4.8,4.7-10.6,7.1-17.5,7.1c-1.8,0-3.7-0.2-5.7-0.8s-4.4-1.2-7.1-2.1
			c-2.7-0.9-5.1-1.6-7.1-2c-5.8-1.6-12.7-2.4-20.8-2.4c-15.3,0-28.2,5.4-38.8,16.3c-10.6,10.8-16,24.6-16,41.2
			c0,16.7,5.2,30.4,15.5,41.2c10.3,10.8,23.4,16.3,39.3,16.3c7.6,0,14.8-0.9,21.7-2.7c2.2-0.6,5-1.4,8.3-2.4c3.3-1,6.1-1.8,8.3-2.3
			c2.2-0.5,4.2-0.8,6-0.8c6.8,0,12.6,2.4,17.5,7.1c4.8,4.7,7.2,10.6,7.2,17.6c0,10.8-6.6,18.8-19.9,23.8
			c-14.6,5.2-30.8,7.8-48.5,7.8c-32.7,0-59.3-9.6-79.9-28.7c-20.6-19.2-30.8-44.8-30.8-76.9c0-29.9,11-54.9,33-74.9
			c22-20.1,48.1-30.1,78.4-30.1c16.9,0,31.8,2.2,44.8,6.6C551.3,390.6,557.7,398.4,557.7,409.7z"/>
		<path class="st2" d="M735,429.2h-43.3v135.4c0,7-2.6,13-7.8,18.1c-5.2,5-11.4,7.5-18.7,7.5c-7.2,0-13.4-2.5-18.7-7.5
			c-5.2-5-7.8-11-7.8-18.1V429.2h-43.3c-6.2,0-11.6-2.3-16.1-6.9c-4.5-4.6-6.8-10.1-6.8-16.5c0-6.4,2.3-11.9,6.8-16.5
			s9.9-6.9,16.1-6.9h139.6c6.2,0,11.6,2.3,16.1,6.9c4.5,4.6,6.8,10.1,6.8,16.5c0,6.4-2.3,11.9-6.8,16.5
			C746.5,426.9,741.2,429.2,735,429.2z"/>
		<path class="st2" d="M803.6,382.3h106.2c6.2,0,11.6,2.3,16.1,6.9c4.5,4.6,6.8,10.1,6.8,16.5c0,6.4-2.3,11.9-6.8,16.5
			c-4.5,4.6-9.9,6.9-16.1,6.9h-79.7v31.3h66.8c6.2,0,11.6,2.3,16.1,6.9c4.5,4.6,6.8,10.1,6.8,16.5c0,6.4-2.3,11.9-6.8,16.5
			c-4.5,4.6-9.9,6.9-16.1,6.9h-66.8v57.2c0,7-2.6,13-7.8,18.1c-5.2,5-11.4,7.5-18.7,7.5s-13.4-2.5-18.7-7.5c-5.2-5-7.8-11-7.8-18.1
			V407.8c0-7,2.6-13,7.8-18.1C790.1,384.8,796.4,382.3,803.6,382.3z"/>
	</g>
	<g>
		<g>
			<path class="st2" d="M247.6,417.6h9c0.8,0,1.6,0.3,2.1,0.9c0.6,0.6,0.9,1.3,0.9,2.2c0,0.9-0.3,1.6-0.9,2.2
				c-0.6,0.6-1.3,0.9-2.1,0.9h-13.7c-0.9,0-1.6-0.3-2.1-0.9c-0.6-0.6-0.8-1.3-0.8-2.4c0-2,0.2-3.7,0.8-5.1c0.5-1.4,1.3-2.6,2.5-3.7
				c1-1,2.5-2,4.5-3c2-1,3.3-1.8,3.9-2.4c0.6-0.6,1-1.4,1-2.3c0-0.7-0.2-1.3-0.7-1.7c-0.5-0.4-1.2-0.6-2.1-0.6c-1,0-2,0.3-3,0.9
				c-0.2,0.1-0.4,0.3-0.8,0.5c-0.4,0.2-0.6,0.4-0.8,0.5c-0.2,0.1-0.4,0.2-0.8,0.3c-0.3,0.1-0.6,0.2-0.9,0.2c-0.9,0-1.6-0.3-2.2-0.8
				c-0.6-0.6-0.9-1.3-0.9-2.3c0-1.6,1.2-2.9,3.5-3.9c1.8-0.8,4-1.3,6.5-1.3c2.9,0,5.2,0.9,6.9,2.8c1.3,1.4,2,3.2,2,5.3
				c0,2.5-0.9,4.5-2.5,6.2c-1,1-2.4,2-4.3,2.9c-1.9,1-3,1.6-3.5,2C248,415.7,247.6,416.5,247.6,417.6z"/>
			<path class="st2" d="M283.8,409.9c0,4.6-0.9,8.2-2.7,10.6c-1.8,2.4-4.4,3.6-7.9,3.6s-6.1-1.2-7.9-3.6c-1.8-2.4-2.7-5.9-2.7-10.6
				c0-4.7,0.9-8.2,2.7-10.6c1.8-2.4,4.4-3.6,7.9-3.6s6.1,1.2,7.9,3.6S283.8,405.3,283.8,409.9z M276.7,409.9c0-2.8-0.3-4.8-0.9-6
				c-0.6-1.1-1.4-1.7-2.5-1.7c-1.1,0-1.9,0.6-2.5,1.7c-0.7,1.3-1,3.3-1,6c0,2.7,0.3,4.7,1,6c0.6,1.1,1.4,1.7,2.5,1.7
				c1.1,0,2-0.6,2.5-1.7C276.4,414.7,276.7,412.7,276.7,409.9z"/>
			<path class="st2" d="M301.3,417.6h3.9c0.8,0,1.5,0.3,2.1,0.9c0.6,0.6,0.9,1.3,0.9,2.1c0,0.9-0.3,1.6-0.9,2.2
				c-0.6,0.6-1.3,0.9-2.1,0.9h-15.4c-0.8,0-1.6-0.3-2.1-0.9c-0.6-0.6-0.9-1.3-0.9-2.2c0-0.8,0.3-1.5,0.9-2.1
				c0.6-0.6,1.3-0.9,2.1-0.9h4.4v-14.3l-3.5,1.1c-0.3,0.1-0.6,0.1-0.9,0.1c-0.8,0-1.6-0.3-2.2-0.8c-0.6-0.5-0.9-1.3-0.9-2.3
				c0-0.7,0.2-1.3,0.6-1.8c0.4-0.5,0.9-0.9,1.5-1.1l7.3-2.4c0.7-0.2,1.5-0.4,2.2-0.4c1,0,1.8,0.3,2.3,1c0.5,0.6,0.8,1.5,0.8,2.5
				L301.3,417.6L301.3,417.6z"/>
			<path class="st2" d="M330.5,409c0,1.3-0.1,2.5-0.2,3.8c-0.2,1.2-0.5,2.5-1,4c-0.5,1.4-1.2,2.7-2,3.7c-0.8,1-2,1.9-3.5,2.7
				c-1.5,0.7-3.2,1.1-5.1,1.1c-2.5,0-4.5-0.3-5.9-1c-1.6-0.7-2.4-1.8-2.4-3.3c0-0.9,0.3-1.6,0.9-2.3s1.4-0.9,2.3-0.9
				c0.6,0,1.4,0.3,2.4,0.8c0.9,0.5,1.8,0.7,2.8,0.7c1.4,0,2.5-0.6,3.4-1.9c0.6-0.8,0.9-1.7,1.1-2.9c-1.3,0.6-2.8,0.9-4.4,0.9
				c-1.1,0-2.2-0.2-3.2-0.5c-1-0.3-2-0.8-2.9-1.5c-0.9-0.7-1.6-1.6-2.1-2.8c-0.5-1.2-0.8-2.6-0.8-4.2c0-2.9,1-5.1,2.9-6.9
				c1.9-1.7,4.3-2.6,7.2-2.6c1.3,0,2.6,0.2,3.7,0.5c1.1,0.3,2.2,1,3.3,1.9c1.1,0.9,2,2.3,2.6,4.1C330.2,404.1,330.5,406.3,330.5,409
				z M323.6,407.3c0-1.3-0.2-2.3-0.4-3.1c-0.3-0.8-0.6-1.4-1.1-1.7c-0.5-0.3-0.8-0.5-1.1-0.6c-0.3-0.1-0.6-0.1-1-0.1
				c-0.9,0-1.7,0.3-2.3,1c-0.6,0.6-0.9,1.4-0.9,2.4c0,2.2,1,3.4,3,3.4C321.1,408.4,322.4,408,323.6,407.3z"/>
		</g>
	</g>
	<g>
		<path class="st2" d="M1019.9,513.2c-3.5,0-7-0.7-10.4-2.3c-12.5-5.8-18-20.6-12.3-33.1l14.1-30.8c5.6-12.1,19.6-17.7,32-12.7
			l52.5,21.1l21.7-60.1l21.8-85l-36.3,8.9l-28.2,58.4c-6,12.4-20.9,17.6-33.3,11.6c-12.4-6-17.6-20.9-11.6-33.3l33.3-69
			c3.2-6.7,9.3-11.6,16.5-13.4l88.2-21.6c8.5-2.1,17.5,0.4,23.7,6.7c6.2,6.2,8.6,15.3,6.4,23.7l-32.4,126.5
			c-0.2,0.8-0.4,1.5-0.7,2.3l-30.8,85.6c-2.3,6.4-7.1,11.5-13.3,14.3c-6.2,2.8-13.2,2.9-19.5,0.4l-54.5-21.9l-4.2,9.2
			C1038.3,507.8,1029.3,513.2,1019.9,513.2z"/>
	</g>
	<g>
		<path class="st2" d="M1256.1,591.4H1237c-11.1,0-20.9-7.4-24-18l-24.9-86.3l-63-64.5c-6.1-6.3-8.5-15.3-6.3-23.7l33.3-127.3
			c2.6-9.9,11-17.3,21.3-18.5c10.2-1.2,20.1,4,24.9,13.1l36.3,68.5l62.4-5.9c13.7-1.3,25.9,8.8,27.2,22.5
			c1.3,13.7-8.8,25.9-22.5,27.2l-79,7.5c-10,0.9-19.7-4.2-24.4-13.1l-14.1-26.6l-13.5,51.7l57.5,58.9c2.9,2.9,5,6.6,6.1,10.5
			l21.4,74.3h0.3c13.8,0,25,11.2,25,25C1281,580.3,1269.9,591.4,1256.1,591.4z"/>
	</g>
	<path class="st0" d="M1208.9,269.1c30.5-6.5,50-36.6,43.4-67.1c-6.5-30.5-36.6-49.9-67.1-43.4c-30.5,6.5-50,36.6-43.4,67
		C1148.3,256.2,1178.4,275.6,1208.9,269.1z"/>
</g>
</svg>
